<?xml version="1.0" standalone="no"?>
<!DOCTYPE svg PUBLIC "-//W3C//DTD SVG 20010904//EN"
 "http://www.w3.org/TR/2001/REC-SVG-20010904/DTD/svg10.dtd">
<svg version="1.0" xmlns="http://www.w3.org/2000/svg"
 viewBox="0 0 2600.000000 2600.000000"
 preserveAspectRatio="xMidYMid meet">
<metadata>
Created by potrace 1.15, written by Peter Selinger 2001-2017
</metadata>
<g transform="translate(0.000000,2600.000000) scale(0.100000,-0.100000)"
fill="#000000" stroke="none">
<path d="M5375 23849 c-563 -82 -1033 -491 -1190 -1034 -38 -133 -55 -255 -55
-400 0 -215 38 -393 128 -594 l48 -106 -54 -40 c-177 -130 -320 -344 -383
-574 -30 -109 -38 -338 -14 -452 94 -465 455 -797 922 -849 232 -25 498 44
693 181 l59 41 27 -33 c61 -77 226 -228 312 -287 157 -107 341 -186 533 -228
120 -27 447 -27 569 0 190 41 389 126 540 230 98 67 256 220 330 318 164 217
262 470 289 745 18 177 -4 374 -60 551 -17 51 -29 95 -27 96 2 2 35 20 73 40
185 96 379 295 477 491 38 74 83 208 103 305 22 104 25 304 6 410 -121 681
-796 1110 -1457 927 -171 -48 -338 -139 -460 -249 l-54 -50 -22 28 c-49 66
-229 233 -313 290 -177 120 -390 206 -591 238 -109 17 -327 20 -429 5z"/>
<path d="M20780 23574 c-297 -44 -557 -188 -737 -409 -76 -94 -167 -258 -199
-358 -10 -32 -21 -57 -25 -57 -4 0 -39 16 -77 35 -293 144 -639 152 -941 22
-239 -104 -476 -335 -577 -564 -190 -429 -112 -910 202 -1242 71 -76 199 -178
265 -212 l39 -19 -34 -68 c-38 -77 -88 -226 -107 -322 -20 -103 -16 -327 8
-440 147 -677 815 -1098 1473 -930 171 44 359 139 474 241 l34 29 63 -29 c190
-86 370 -124 579 -124 174 0 288 18 451 73 225 75 386 175 559 349 268 270
404 583 417 961 7 234 -27 418 -118 627 -113 256 -354 524 -594 659 -36 20
-64 39 -63 43 63 120 113 235 133 306 184 643 -245 1312 -910 1420 -81 13
-251 18 -315 9z"/>
<path d="M14280 20084 c-298 -38 -556 -166 -755 -376 -179 -188 -293 -424
-327 -680 -10 -67 -16 -88 -28 -88 -8 0 -78 5 -155 10 -953 64 -2365 71 -3190
15 -1108 -75 -1955 -198 -2744 -400 -286 -74 -716 -214 -921 -300 -421 -178
-767 -401 -979 -631 -79 -86 -126 -155 -184 -269 -110 -215 -122 -421 -41
-665 70 -209 198 -397 428 -625 323 -320 734 -593 1351 -896 1475 -725 3575
-1290 6000 -1613 1391 -186 2983 -278 4295 -248 582 14 733 21 1215 57 1593
121 2833 397 3666 816 281 141 426 241 617 423 252 241 378 537 343 806 -39
302 -224 602 -556 903 -1062 960 -3467 1824 -6410 2302 -159 26 -291 48 -292
49 -1 1 3 48 8 105 24 241 -42 511 -183 738 -66 107 -253 300 -353 365 -204
132 -404 195 -640 202 -71 2 -146 2 -165 0z"/>
<path d="M5374 12744 c10 -61 86 -736 86 -760 0 -21 -6 -22 -107 -28 -252 -14
-407 -29 -539 -51 -576 -97 -941 -303 -1050 -592 -65 -173 -32 -313 106 -452
266 -265 871 -458 1612 -512 l167 -12 5 -36 c3 -20 71 -610 151 -1311 155
-1360 161 -1398 239 -1605 114 -306 268 -539 525 -796 288 -287 540 -446 986
-622 1115 -441 2452 -693 4195 -791 638 -36 852 -41 1870 -41 978 0 1210 5
1810 35 1812 93 3283 332 4400 715 465 160 710 280 973 478 132 99 317 277
414 397 232 289 399 653 452 985 6 39 74 628 151 1310 78 682 143 1249 145
1261 4 20 13 21 142 27 710 34 1388 236 1666 496 212 198 209 455 -8 676 -85
87 -164 142 -299 206 -275 131 -631 206 -1098 231 -211 11 -217 12 -213 32 8
38 86 747 83 755 -2 5 -64 -25 -138 -66 -703 -389 -1631 -710 -2795 -967
-2045 -450 -4610 -627 -7145 -491 -2835 153 -5311 709 -6680 1503 -52 30 -99
57 -104 60 -4 2 -5 -13 -2 -34z"/>
<path d="M11387 4413 c-205 -277 -328 -489 -432 -742 -90 -219 -126 -386 -126
-577 0 -303 70 -512 221 -665 118 -120 262 -179 435 -179 173 0 317 59 435
179 160 162 227 378 218 704 -5 138 -10 179 -36 279 -64 245 -199 533 -375
798 -50 76 -237 330 -242 330 -2 0 -45 -57 -98 -127z"/>
<path d="M13741 4422 c-288 -382 -482 -771 -547 -1097 -22 -109 -25 -343 -5
-455 54 -306 195 -500 425 -583 105 -38 255 -47 361 -23 277 65 448 279 501
629 19 123 14 344 -11 457 -48 218 -197 557 -350 795 -60 94 -233 337 -276
388 -4 5 -48 -45 -98 -111z"/>
<path d="M16065 4390 c-297 -405 -473 -772 -530 -1104 -42 -245 6 -564 112
-740 55 -92 157 -188 245 -230 109 -52 192 -69 318 -63 328 14 543 232 611
617 20 112 17 346 -5 455 -51 256 -194 578 -387 871 -62 94 -245 344 -252 344
-2 0 -52 -67 -112 -150z"/>
</g>
</svg>
